<svg version="1.1" id="Layer_1" xmlns="http://www.w3.org/2000/svg" xmlns:xlink="http://www.w3.org/1999/xlink" x="0px" y="0px"
	 width="100%" viewBox="0 0 167 195" enable-background="new 0 0 167 195" xml:space="preserve">
<path fill="#FFFEFE" opacity="1.000000" stroke="none" 
	d="
M83.000000,196.000000 
	C55.333336,196.000000 28.166670,196.000000 1.000004,196.000000 
	C1.000002,131.000000 1.000002,66.000008 1.000001,1.000012 
	C56.666656,1.000008 112.333313,1.000008 167.999969,1.000004 
	C167.999985,65.999992 167.999985,130.999985 168.000000,195.999985 
	C139.833328,196.000000 111.666664,196.000000 83.000000,196.000000 
M24.829153,120.701508 
	C25.257553,121.467659 25.685955,122.233818 25.999453,123.717445 
	C27.408932,124.778671 28.725067,126.001610 30.241755,126.877113 
	C57.477970,142.599030 84.735680,158.283722 111.995735,173.964325 
	C118.425621,177.662949 124.880905,181.317429 132.005661,185.380676 
	C132.005661,179.764664 132.411682,174.948105 131.823669,170.256149 
	C131.554855,168.111282 129.780563,165.468353 127.910606,164.329468 
	C119.685570,159.320023 111.176476,154.776962 102.790810,149.354507 
	C103.046234,148.955048 103.301659,148.555588 104.190689,147.995010 
	C116.796463,140.209229 129.455750,132.507507 141.953125,124.551430 
	C143.938431,123.287552 145.195068,120.879074 147.055313,118.477516 
	C147.294342,117.982895 147.533371,117.488281 148.000473,116.081955 
	C147.977844,97.598167 147.755310,79.111313 148.039047,60.632233 
	C148.140869,54.000717 145.697372,49.780670 139.975876,46.584084 
	C124.282982,37.816513 108.787666,28.695866 93.164642,19.801943 
	C91.342438,18.764595 89.209923,18.272354 86.673904,17.303558 
	C86.121811,17.414616 85.569710,17.525673 84.226036,17.551605 
	C83.578117,17.700710 82.846184,17.703455 82.294441,18.020132 
	C64.112930,28.455559 45.931408,38.891495 27.829769,49.464119 
	C26.862116,50.029297 26.588720,51.783127 25.284462,53.326099 
	C24.967087,55.269478 24.381166,57.211861 24.373999,59.156384 
	C24.304581,77.987541 24.319471,96.819069 24.357302,115.650398 
	C24.360235,117.111008 24.718681,118.570900 24.829153,120.701508 
z"/>
<path fill="#DE373C" opacity="1.000000" stroke="none" 
	d="
M146.788605,118.999771 
	C145.195068,120.879074 143.938431,123.287552 141.953125,124.551430 
	C129.455750,132.507507 116.796463,140.209229 103.501205,148.038910 
	C101.851387,148.082794 100.891045,148.082794 99.930702,148.082794 
	C99.912224,148.338547 99.893745,148.594299 99.875267,148.850052 
	C100.840286,149.255005 101.805313,149.659943 102.770332,150.064880 
	C111.176476,154.776962 119.685570,159.320023 127.910606,164.329468 
	C129.780563,165.468353 131.554855,168.111282 131.823669,170.256149 
	C132.411682,174.948105 132.005661,179.764664 132.005661,185.380676 
	C124.880905,181.317429 118.425621,177.662949 111.995735,173.964325 
	C84.735680,158.283722 57.477970,142.599030 30.241755,126.877113 
	C28.725067,126.001610 27.408932,124.778671 26.400093,123.355377 
	C29.811346,120.987617 34.297043,120.712868 35.297905,116.004570 
	C35.985023,116.018608 36.377567,116.031242 37.184372,116.080116 
	C39.151211,115.629158 40.703789,115.141960 42.525108,114.862381 
	C44.604534,116.233704 46.372772,117.470612 48.232742,118.549355 
	C61.136612,126.033249 74.059547,133.484268 87.130745,141.253510 
	C89.972603,142.942749 89.972603,142.942749 90.217133,137.740417 
	C103.977394,128.992981 117.520538,120.507095 131.426971,112.015991 
	C132.516785,112.020493 133.243317,112.030197 134.036591,112.171997 
	C134.194168,112.348343 134.285019,112.392593 134.375870,112.436844 
	C134.262650,112.281982 134.149414,112.127129 133.992477,111.671303 
	C133.369156,110.914307 132.789551,110.458282 132.097870,109.545364 
	C131.836243,93.449127 131.686676,77.809776 131.864563,62.041958 
	C132.708664,61.192905 133.225327,60.472332 134.227966,59.073959 
	C132.143875,59.528610 131.085846,59.759422 129.712006,59.855499 
	C126.578323,57.989235 123.813484,56.163475 120.933243,54.542801 
	C109.682083,48.211903 98.394417,41.945892 87.094788,35.209873 
	C87.119926,29.018456 87.170593,23.272930 87.221268,17.527405 
	C89.209923,18.272354 91.342438,18.764595 93.164642,19.801943 
	C108.787666,28.695866 124.282982,37.816513 139.975876,46.584084 
	C145.697372,49.780670 148.140869,54.000717 148.039047,60.632233 
	C147.755310,79.111313 147.977844,97.598167 147.556641,116.495132 
	C146.142517,116.970589 145.172211,117.032860 144.201904,117.095123 
	C145.064133,117.730003 145.926361,118.364891 146.788605,118.999771 
M94.867439,146.407211 
	C95.523888,146.232117 96.180344,146.057037 96.836792,145.881943 
	C95.422333,144.739960 94.007866,143.597977 92.593407,142.455994 
	C92.305191,142.760376 92.016975,143.064758 91.728760,143.369125 
	C92.581375,144.285156 93.433990,145.201172 94.867439,146.407211 
M136.311203,113.963875 
	C137.315643,114.324951 138.320068,114.686028 139.324509,115.047104 
	C139.460815,114.576111 139.597137,114.105125 139.733459,113.634132 
	C138.626419,113.559212 137.519379,113.484291 136.311203,113.963875 
M137.737686,58.184250 
	C137.623444,58.026905 137.509201,57.869560 137.394958,57.712215 
	C137.418045,57.931046 137.441132,58.149879 137.737686,58.184250 
M98.412506,145.483063 
	C98.412506,145.483063 98.522995,145.417160 98.412506,145.483063 
z"/>
<path fill="#DE373C" opacity="1.000000" stroke="none" 
	d="
M25.992134,52.983616 
	C26.588720,51.783127 26.862116,50.029297 27.829769,49.464119 
	C45.931408,38.891495 64.112930,28.455559 82.294441,18.020132 
	C82.846184,17.703455 83.578117,17.700710 84.636627,18.088146 
	C84.993378,24.320713 84.939545,30.016741 84.545135,35.833389 
	C70.193542,44.039345 56.182526,52.124683 41.770325,60.169567 
	C40.569283,60.080391 39.769432,60.031673 38.984196,59.992004 
	C38.998814,60.001053 39.027073,60.020641 38.945278,59.701881 
	C38.239155,59.254513 37.614822,59.125904 36.743557,58.997696 
	C36.496620,58.998093 36.002747,58.998096 36.001926,58.696594 
	C35.334274,57.930172 34.667442,57.465256 34.000305,57.000168 
	C34.000000,57.000000 33.999542,56.999317 33.991653,56.767555 
	C33.653717,56.357269 33.323662,56.178745 32.746849,55.996151 
	C32.500095,55.992077 32.006649,55.980450 31.963160,55.667057 
	C30.607445,54.902771 29.295219,54.451881 27.685190,53.978775 
	C26.922302,53.632244 26.457216,53.307930 25.992134,52.983616 
z"/>
<path fill="#DE373C" opacity="1.000000" stroke="none" 
	d="
M36.002747,58.998096 
	C36.002747,58.998096 36.496620,58.998093 36.863075,59.291626 
	C37.828712,59.730324 38.427895,59.875481 39.027073,60.020638 
	C39.027073,60.020641 38.998814,60.001053 39.161743,60.334557 
	C39.868011,61.218113 40.411346,61.768166 40.857616,62.754578 
	C40.643555,69.295807 40.394989,75.401627 40.438927,81.505341 
	C40.513760,91.901123 40.772453,102.295586 40.635811,112.921669 
	C39.135185,114.116447 37.952648,115.080162 36.770107,116.043869 
	C36.377567,116.031242 35.985023,116.018608 34.975746,116.144119 
	C31.209972,117.531868 28.060932,118.781494 24.911892,120.031120 
	C24.718681,118.570900 24.360235,117.111008 24.357302,115.650398 
	C24.319471,96.819069 24.304581,77.987541 24.373999,59.156384 
	C24.381166,57.211861 24.967087,55.269478 25.638298,53.154858 
	C26.457216,53.307930 26.922302,53.632244 27.877779,54.245510 
	C29.580997,55.016460 30.793823,55.498455 32.006649,55.980450 
	C32.006649,55.980450 32.500095,55.992077 32.856453,56.215218 
	C33.413433,56.711750 33.675678,56.898739 33.999542,56.999317 
	C33.999542,56.999317 34.000000,57.000000 34.041634,57.321030 
	C34.723095,58.094074 35.362923,58.546085 36.002747,58.998096 
z"/>
<path fill="#EA8184" opacity="1.000000" stroke="none" 
	d="
M84.885712,35.712769 
	C84.939545,30.016741 84.993378,24.320713 85.032410,18.130707 
	C85.569710,17.525673 86.121811,17.414616 86.947586,17.415482 
	C87.170593,23.272930 87.119926,29.018456 86.723030,35.248440 
	C85.879776,35.726189 85.382744,35.719479 84.885712,35.712769 
z"/>
<path fill="#DE393E" opacity="1.000000" stroke="none" 
	d="
M24.870522,120.366318 
	C28.060932,118.781494 31.209972,117.531868 34.681168,116.142700 
	C34.297043,120.712868 29.811346,120.987617 26.457542,122.996643 
	C25.685955,122.233818 25.257553,121.467659 24.870522,120.366318 
z"/>
<path fill="#DE373C" opacity="1.000000" stroke="none" 
	d="
M146.921951,118.738647 
	C145.926361,118.364891 145.064133,117.730003 144.201904,117.095123 
	C145.172211,117.032860 146.142517,116.970589 147.442612,116.950989 
	C147.533371,117.488281 147.294342,117.982895 146.921951,118.738647 
z"/>
<path fill="#DE373C" opacity="1.000000" stroke="none" 
	d="
M102.780571,149.709686 
	C101.805313,149.659943 100.840286,149.255005 99.875267,148.850052 
	C99.893745,148.594299 99.912224,148.338547 99.930702,148.082794 
	C100.891045,148.082794 101.851387,148.082794 103.184402,148.119461 
	C103.301659,148.555588 103.046234,148.955048 102.780571,149.709686 
z"/>
<path fill="#FFFDFE" opacity="1.000000" stroke="none" 
	d="
M84.545135,35.833389 
	C85.382744,35.719479 85.879776,35.726189 86.748566,35.694332 
	C98.394417,41.945892 109.682083,48.211903 120.933243,54.542801 
	C123.813484,56.163475 126.578323,57.989235 129.799438,60.111221 
	C130.647491,61.057922 131.092300,61.614178 131.537109,62.170433 
	C131.686676,77.809776 131.836243,93.449127 131.981781,109.815598 
	C131.673080,111.035561 131.368378,111.528389 131.063675,112.021210 
	C117.520538,120.507095 103.977394,128.992981 89.878708,137.790314 
	C88.540894,139.049759 87.758629,139.997803 86.976364,140.945847 
	C74.059547,133.484268 61.136612,126.033249 48.232742,118.549355 
	C46.372772,117.470612 44.604534,116.233704 42.481380,114.622673 
	C41.763912,113.680435 41.358910,113.185516 40.953903,112.690598 
	C40.772453,102.295586 40.513760,91.901123 40.438927,81.505341 
	C40.394989,75.401627 40.643555,69.295807 41.033253,62.580563 
	C41.594471,61.383469 41.882992,60.796749 42.171509,60.210026 
	C56.182526,52.124683 70.193542,44.039345 84.545135,35.833389 
z"/>
<path fill="#DE373C" opacity="1.000000" stroke="none" 
	d="
M94.577026,146.262207 
	C93.433990,145.201172 92.581375,144.285156 91.728760,143.369125 
	C92.016975,143.064758 92.305191,142.760376 92.593407,142.455994 
	C94.007866,143.597977 95.422333,144.739960 96.836792,145.881943 
	C96.180344,146.057037 95.523888,146.232117 94.577026,146.262207 
z"/>
<path fill="#DE373C" opacity="1.000000" stroke="none" 
	d="
M87.130737,141.253510 
	C87.758629,139.997803 88.540894,139.049759 89.661583,138.051834 
	C89.972603,142.942749 89.972603,142.942749 87.130737,141.253510 
z"/>
<path fill="#EE9598" opacity="1.000000" stroke="none" 
	d="
M40.635818,112.921669 
	C41.358910,113.185516 41.763912,113.680435 42.212646,114.415054 
	C40.703789,115.141960 39.151211,115.629158 37.184372,116.080109 
	C37.952648,115.080162 39.135185,114.116447 40.635818,112.921669 
z"/>
<path fill="#DE373C" opacity="1.000000" stroke="none" 
	d="
M131.864563,62.041958 
	C131.092300,61.614178 130.647491,61.057922 130.115265,60.245949 
	C131.085846,59.759422 132.143875,59.528610 134.227966,59.073959 
	C133.225327,60.472332 132.708664,61.192905 131.864563,62.041958 
z"/>
<path fill="#DE373C" opacity="1.000000" stroke="none" 
	d="
M136.361771,113.686630 
	C137.519379,113.484291 138.626419,113.559212 139.733459,113.634132 
	C139.597137,114.105125 139.460815,114.576111 139.324509,115.047104 
	C138.320068,114.686028 137.315643,114.324951 136.361771,113.686630 
z"/>
<path fill="#DE373C" opacity="1.000000" stroke="none" 
	d="
M131.426971,112.015999 
	C131.368378,111.528389 131.673080,111.035561 132.093842,110.272491 
	C132.789551,110.458282 133.369156,110.914307 133.974396,111.686737 
	C134.000015,112.003136 133.969849,112.039894 133.969849,112.039894 
	C133.243317,112.030197 132.516785,112.020493 131.426971,112.015999 
z"/>
<path fill="#DE383D" opacity="1.000000" stroke="none" 
	d="
M137.600952,58.276482 
	C137.441132,58.149879 137.418045,57.931046 137.394958,57.712215 
	C137.509201,57.869560 137.623444,58.026905 137.600952,58.276482 
z"/>
<path fill="#DE373C" opacity="1.000000" stroke="none" 
	d="
M134.018097,111.987701 
	C134.149414,112.127129 134.262650,112.281982 134.375870,112.436844 
	C134.285019,112.392593 134.194168,112.348343 134.036591,112.171997 
	C133.969849,112.039894 134.000015,112.003136 134.018097,111.987701 
z"/>
<path fill="#DE373C" opacity="1.000000" stroke="none" 
	d="
M98.467751,145.450104 
	C98.522995,145.417160 98.412506,145.483063 98.467751,145.450104 
z"/>
<path fill="#DE393E" opacity="1.000000" stroke="none" 
	d="
M31.963160,55.667057 
	C30.793823,55.498455 29.580997,55.016460 28.175583,54.267727 
	C29.295219,54.451881 30.607445,54.902771 31.963160,55.667057 
z"/>
<path fill="#EE9598" opacity="1.000000" stroke="none" 
	d="
M41.770325,60.169567 
	C41.882992,60.796749 41.594471,61.383469 41.130318,62.144203 
	C40.411346,61.768166 39.868011,61.218113 39.147125,60.325508 
	C39.769432,60.031673 40.569283,60.080391 41.770325,60.169567 
z"/>
<path fill="#DE393E" opacity="1.000000" stroke="none" 
	d="
M36.001926,58.696594 
	C35.362923,58.546085 34.723095,58.094074 34.041939,57.321198 
	C34.667442,57.465256 35.334274,57.930172 36.001926,58.696594 
z"/>
<path fill="#EE9598" opacity="1.000000" stroke="none" 
	d="
M38.945278,59.701881 
	C38.427895,59.875481 37.828712,59.730324 37.110016,59.291229 
	C37.614822,59.125904 38.239155,59.254513 38.945278,59.701881 
z"/>
<path fill="#DE393E" opacity="1.000000" stroke="none" 
	d="
M33.991653,56.767555 
	C33.675678,56.898739 33.413433,56.711750 33.103207,56.219292 
	C33.323662,56.178745 33.653717,56.357269 33.991653,56.767555 
z"/>
</svg>